<svg xmlns="http://www.w3.org/2000/svg" viewBox="0 0 64 64">
  <defs><linearGradient id="g" x1="7" y1="5" x2="57" y2="59" gradientUnits="userSpaceOnUse"><stop stop-color="#2563EB"/><stop offset=".56" stop-color="#4F46E5"/><stop offset="1" stop-color="#7C3AED"/></linearGradient></defs>
  <rect width="64" height="64" rx="19" fill="url(#g)"/>
  <path d="M17 18h30v6H27v10c0 6 2.7 9 8.3 9 4 0 7-1.1 10-3.3v7c-3 1.8-6.7 2.7-11 2.7-5.3 0-9.4-1.5-12.1-4.5C19.4 42 18 37.8 18 32.4V18Z" fill="#fff"/>
  <path d="m43 12 2 3.7 3.8 2-3.8 2-2 3.8-2-3.8-3.8-2 3.8-2 2-3.7Z" fill="#CFFAFE"/>
</svg>